<?xml version="1.0" encoding="UTF-8"?>
<!DOCTYPE svg PUBLIC "-//W3C//DTD SVG 1.1//EN" "http://www.w3.org/Graphics/SVG/1.1/DTD/svg11.dtd">
<svg xmlns="http://www.w3.org/2000/svg" version="1.1" width="1333px" height="2000px" style="shape-rendering:geometricPrecision; text-rendering:geometricPrecision; image-rendering:optimizeQuality; fill-rule:evenodd; clip-rule:evenodd" xmlns:xlink="http://www.w3.org/1999/xlink">
<g><path style="opacity:1" fill="#d0d6df" d="M -0.5,-0.5 C 200.5,-0.5 401.5,-0.5 602.5,-0.5C 602.5,306.167 602.5,612.833 602.5,919.5C 401.5,919.5 200.5,919.5 -0.5,919.5C -0.5,612.833 -0.5,306.167 -0.5,-0.5 Z"/></g>
<g><path style="opacity:1" fill="#fefefe" d="M 602.5,-0.5 C 644.5,-0.5 686.5,-0.5 728.5,-0.5C 728.5,306.167 728.5,612.833 728.5,919.5C 929.5,919.5 1130.5,919.5 1331.5,919.5C 1331.5,612.833 1331.5,306.167 1331.5,-0.5C 1331.83,-0.5 1332.17,-0.5 1332.5,-0.5C 1332.5,346.833 1332.5,694.167 1332.5,1041.5C 888.167,1041.5 443.833,1041.5 -0.5,1041.5C -0.5,1000.83 -0.5,960.167 -0.5,919.5C 200.5,919.5 401.5,919.5 602.5,919.5C 602.5,612.833 602.5,306.167 602.5,-0.5 Z"/></g>
<g><path style="opacity:1" fill="#d1d6e0" d="M 728.5,-0.5 C 929.5,-0.5 1130.5,-0.5 1331.5,-0.5C 1331.5,306.167 1331.5,612.833 1331.5,919.5C 1130.5,919.5 929.5,919.5 728.5,919.5C 728.5,612.833 728.5,306.167 728.5,-0.5 Z"/></g>
<g><path style="opacity:1" fill="#d1d6e0" d="M -0.5,1041.5 C 443.833,1041.5 888.167,1041.5 1332.5,1041.5C 1332.5,1360.83 1332.5,1680.17 1332.5,1999.5C 888.167,1999.5 443.833,1999.5 -0.5,1999.5C -0.5,1680.17 -0.5,1360.83 -0.5,1041.5 Z"/></g>
</svg>
