<?xml version="1.0" encoding="UTF-8"?>
<!DOCTYPE svg PUBLIC "-//W3C//DTD SVG 1.1//EN" "http://www.w3.org/Graphics/SVG/1.1/DTD/svg11.dtd">
<svg xmlns="http://www.w3.org/2000/svg" version="1.1" width="1333px" height="2000px" style="shape-rendering:geometricPrecision; text-rendering:geometricPrecision; image-rendering:optimizeQuality; fill-rule:evenodd; clip-rule:evenodd" xmlns:xlink="http://www.w3.org/1999/xlink">
<g><path style="opacity:1" fill="#d0d6df" d="M -0.5,-0.5 C 263.833,-0.5 528.167,-0.5 792.5,-0.5C 792.5,666.167 792.5,1332.83 792.5,1999.5C 528.167,1999.5 263.833,1999.5 -0.5,1999.5C -0.5,1332.83 -0.5,666.167 -0.5,-0.5 Z"/></g>
<g><path style="opacity:1" fill="#fefffe" d="M 792.5,-0.5 C 821.5,-0.5 850.5,-0.5 879.5,-0.5C 879.5,666.167 879.5,1332.83 879.5,1999.5C 850.5,1999.5 821.5,1999.5 792.5,1999.5C 792.5,1332.83 792.5,666.167 792.5,-0.5 Z"/></g>
<g><path style="opacity:1" fill="#d1d6e0" d="M 879.5,-0.5 C 1030.5,-0.5 1181.5,-0.5 1332.5,-0.5C 1332.5,666.167 1332.5,1332.83 1332.5,1999.5C 1181.5,1999.5 1030.5,1999.5 879.5,1999.5C 879.5,1332.83 879.5,666.167 879.5,-0.5 Z"/></g>
</svg>
