<?xml version="1.0" encoding="UTF-8"?>
<!DOCTYPE svg PUBLIC "-//W3C//DTD SVG 1.1//EN" "http://www.w3.org/Graphics/SVG/1.1/DTD/svg11.dtd">
<svg xmlns="http://www.w3.org/2000/svg" version="1.1" width="1333px" height="2000px" style="shape-rendering:geometricPrecision; text-rendering:geometricPrecision; image-rendering:optimizeQuality; fill-rule:evenodd; clip-rule:evenodd" xmlns:xlink="http://www.w3.org/1999/xlink">
<g><path style="opacity:1" fill="#d1d6e0" d="M -0.5,-0.5 C 443.833,-0.5 888.167,-0.5 1332.5,-0.5C 1332.5,438.833 1332.5,878.167 1332.5,1317.5C 888.167,1317.5 443.833,1317.5 -0.5,1317.5C -0.5,878.167 -0.5,438.833 -0.5,-0.5 Z"/></g>
<g><path style="opacity:1" fill="#fefefe" d="M -0.5,1317.5 C 443.833,1317.5 888.167,1317.5 1332.5,1317.5C 1332.5,1348.17 1332.5,1378.83 1332.5,1409.5C 888.167,1409.5 443.833,1409.5 -0.5,1409.5C -0.5,1378.83 -0.5,1348.17 -0.5,1317.5 Z"/></g>
<g><path style="opacity:1" fill="#d0d6df" d="M -0.5,1409.5 C 443.833,1409.5 888.167,1409.5 1332.5,1409.5C 1332.5,1606.17 1332.5,1802.83 1332.5,1999.5C 888.167,1999.5 443.833,1999.5 -0.5,1999.5C -0.5,1802.83 -0.5,1606.17 -0.5,1409.5 Z"/></g>
</svg>
