<?xml version="1.0" encoding="UTF-8"?>
<!DOCTYPE svg PUBLIC "-//W3C//DTD SVG 1.1//EN" "http://www.w3.org/Graphics/SVG/1.1/DTD/svg11.dtd">
<svg xmlns="http://www.w3.org/2000/svg" version="1.1" width="1333px" height="2000px" style="shape-rendering:geometricPrecision; text-rendering:geometricPrecision; image-rendering:optimizeQuality; fill-rule:evenodd; clip-rule:evenodd" xmlns:xlink="http://www.w3.org/1999/xlink">
<g><path style="opacity:1" fill="#d1d6e0" d="M -0.5,-0.5 C 136.833,-0.5 274.167,-0.5 411.5,-0.5C 411.5,231.167 411.5,462.833 411.5,694.5C 274.167,694.5 136.833,694.5 -0.5,694.5C -0.5,462.833 -0.5,231.167 -0.5,-0.5 Z"/></g>
<g><path style="opacity:1" fill="#fefefe" d="M 411.5,-0.5 C 428.5,-0.5 445.5,-0.5 462.5,-0.5C 462.5,231.167 462.5,462.833 462.5,694.5C 599.833,694.5 737.167,694.5 874.5,694.5C 874.5,462.833 874.5,231.167 874.5,-0.5C 891.5,-0.5 908.5,-0.5 925.5,-0.5C 925.5,231.167 925.5,462.833 925.5,694.5C 1061.17,694.5 1196.83,694.5 1332.5,694.5C 1332.5,720.167 1332.5,745.833 1332.5,771.5C 888.167,771.5 443.833,771.5 -0.5,771.5C -0.5,745.833 -0.5,720.167 -0.5,694.5C 136.833,694.5 274.167,694.5 411.5,694.5C 411.5,462.833 411.5,231.167 411.5,-0.5 Z"/></g>
<g><path style="opacity:1" fill="#d1d6e0" d="M 462.5,-0.5 C 599.833,-0.5 737.167,-0.5 874.5,-0.5C 874.5,231.167 874.5,462.833 874.5,694.5C 737.167,694.5 599.833,694.5 462.5,694.5C 462.5,462.833 462.5,231.167 462.5,-0.5 Z"/></g>
<g><path style="opacity:1" fill="#d0d6df" d="M 925.5,-0.5 C 1061.17,-0.5 1196.83,-0.5 1332.5,-0.5C 1332.5,231.167 1332.5,462.833 1332.5,694.5C 1196.83,694.5 1061.17,694.5 925.5,694.5C 925.5,462.833 925.5,231.167 925.5,-0.5 Z"/></g>
<g><path style="opacity:1" fill="#d1d6e0" d="M -0.5,771.5 C 443.833,771.5 888.167,771.5 1332.5,771.5C 1332.5,1180.83 1332.5,1590.17 1332.5,1999.5C 888.167,1999.5 443.833,1999.5 -0.5,1999.5C -0.5,1590.17 -0.5,1180.83 -0.5,771.5 Z"/></g>
</svg>
